<?xml version="1.0" encoding="UTF-8" standalone="no"?>
<svg width="61px" height="50px" viewBox="0 0 61 50" version="1.1" xmlns="http://www.w3.org/2000/svg" xmlns:xlink="http://www.w3.org/1999/xlink">
    <!-- Generator: Sketch 42 (36781) - http://www.bohemiancoding.com/sketch -->
    <title>Logo_primary Copy</title>
    <desc>Created with Sketch.</desc>
    <defs></defs>
    <g id="final" stroke="none" stroke-width="1" fill="none" fill-rule="evenodd">
        <g id="Landing" transform="translate(-480.000000, -1749.000000)">
            <g id="Group-9" transform="translate(0.000000, 1724.000000)">
                <g id="Logo_primary-Copy" transform="translate(480.473684, 25.000000)">
                    <g id="Group">
                        <path d="M38.1653977,36.7019889 L31.7059377,29.8999728 C31.3214269,29.495763 30.79373,29.2682927 30.2419007,29.2682927 L30.238683,29.2682927 C29.6860493,29.2699292 29.157548,29.4990359 28.7738416,29.9032457 L22.3562113,36.7052619 C21.5783411,37.5300462 21.6040824,38.8416824 22.4157381,39.6312825 C23.2257849,40.4241556 24.5144592,40.3971537 25.291525,39.5723693 L28.1978798,36.4925199 L28.1978798,47.930675 C28.1978798,49.0729358 29.1092831,50 30.2330521,50 C31.3568212,50 32.26742,49.0729358 32.26742,47.930675 L32.26742,36.448335 L35.2389325,39.5772788 C35.6379228,39.9970351 36.1704462,40.2097771 36.7021651,40.2097771 C37.2113604,40.2097771 37.7213601,40.0166728 38.1155239,39.6280096 C38.9239619,38.8343183 38.9464856,37.5235003 38.1653977,36.7019889" id="Fill-1" fill="#0099FF"></path>
                        <path d="M38.9316778,28.5231296 L32.9046562,22.022903 L44.2019434,5.71994143 L48.1033708,11.1045537 L38.9316778,28.5231296 Z M21.5946503,28.5231296 L12.4237523,11.1045537 L16.3243847,5.71994143 L27.6208771,22.022903 L21.5946503,28.5231296 Z M30.2631641,18.5906157 L20.2663526,4.16501372 L40.2599755,4.16501372 L30.2631641,18.5906157 Z M59.2710874,12.4144332 L51.843431,9.23283669 L46.0008289,1.1704277 C45.6677609,0.477199173 44.9666486,0 44.1550436,0 L16.3712845,0 C15.5596795,0 14.8585673,0.477199173 14.5247043,1.1704277 L8.68289712,9.23283669 L1.25444586,12.4144332 C0.210726597,12.8618074 -0.278939103,14.081406 0.162236974,15.1430129 C0.492920305,15.9361953 1.25365095,16.4133945 2.05492209,16.4133945 C2.32121756,16.4133945 2.59228251,16.3609993 2.85221868,16.2497603 L9.07399375,13.5872791 L19.3196126,33.0444305 C19.6312181,33.6377052 20.2043495,34.040745 20.8609467,34.1278016 C20.9507717,34.1406989 21.0413917,34.1463415 21.1312167,34.1463415 C21.6932194,34.1463415 22.2361442,33.9117723 22.6272408,33.4918048 L30.2631641,25.2536704 L37.8990873,33.4918048 C38.290184,33.9117723 38.8323138,34.1463415 39.3951114,34.1463415 C39.4849365,34.1463415 39.5755564,34.1406989 39.6653815,34.1278016 C40.3211837,34.040745 40.8951101,33.6377052 41.2067155,33.0444305 L51.4515395,13.5872791 L57.6741095,16.2497603 C57.9340456,16.3609993 58.2051106,16.4133945 58.4706111,16.4133945 C59.2718823,16.4133945 60.0334078,15.9361953 60.3640912,15.1430129 C60.8052672,14.081406 60.3156015,12.8618074 59.2710874,12.4144332 L59.2710874,12.4144332 Z" id="Fill-2" fill="#000000"></path>
                    </g>
                </g>
            </g>
        </g>
    </g>
</svg>