<?xml version="1.0" encoding="UTF-8" standalone="no"?>
<svg width="44px" height="80px" viewBox="0 0 44 80" version="1.1" xmlns="http://www.w3.org/2000/svg" xmlns:xlink="http://www.w3.org/1999/xlink">
    <!-- Generator: Sketch 42 (36781) - http://www.bohemiancoding.com/sketch -->
    <title>phone</title>
    <desc>Created with Sketch.</desc>
    <defs></defs>
    <g id="final" stroke="none" stroke-width="1" fill="none" fill-rule="evenodd">
        <g id="Landing" transform="translate(-307.000000, -1310.000000)">
            <g id="phone" transform="translate(307.000000, 1310.000000)">
                <g id="Artboard-1-Copy-75" fill="#434343">
                    <g id="Group">
                        <g>
                            <path d="M24,4 L20,4 C19.4477153,4 19,4.4477153 19,5 C19,5.5522847 19.4477153,6 20,6 L24,6 C24.5522847,6 25,5.5522847 25,5 C25,4.4477153 24.5522847,4 24,4 L24,4 Z" id="Shape"></path>
                            <rect id="Rectangle-path" x="10" y="4" width="2" height="2" rx="1"></rect>
                            <path d="M42,8 L2,8 L2,3.995 C2,2.895 2.896,2 4.002,2 L39.998,2 C41.107,2 42,2.891 42,3.995 L42,8 Z M2,70 L42,70 L42,10 L2,10 L2,70 Z M42,76.006 C42,77.105 41.104,78 39.998,78 L4.002,78 C2.893,78 2,77.109 2,76.006 L2,72 L42,72 L42,76.006 Z M39.998,0 L4.002,0 C1.793,0 0,1.789 0,3.995 L0,8 L0,10 L0,76.006 C0,78.217 1.791,80 4.002,80 L39.998,80 C42.207,80 44,78.212 44,76.006 L44,72 L44,70 L44,3.995 C44,1.783 42.209,0 39.998,0 L39.998,0 Z" id="Shape"></path>
                        </g>
                    </g>
                </g>
                <path d="M21.6606057,36.6968472 C21.7020943,36.8520706 21.7256768,37.0115333 21.7308927,37.172121 C21.7373731,37.302203 21.6901861,37.4292449 21.6003598,37.5235558 C21.5072812,37.6195971 21.379322,37.6739194 21.2455779,37.6741708 C21.1054223,37.6740859 20.9722456,37.6129957 20.8807551,37.5068208 C20.5796,37.1656373 20.1476369,36.9685161 19.6925706,36.9646071 L19.6691417,36.9646071 C19.2129058,36.9675672 18.7795417,37.1647722 18.4776102,37.5068208 C18.3861197,37.6129957 18.252943,37.6740859 18.1127874,37.6741708 C17.9790433,37.6739194 17.8510841,37.6195971 17.7580055,37.5235558 C17.6681792,37.4292449 17.6209922,37.302203 17.6274726,37.172121 C17.6380547,37.0108706 17.6672562,36.8513859 17.7144946,36.6968472 C17.9239111,35.9458289 18.5415248,35.378818 19.3076658,35.2342089 C19.4357925,35.211242 19.5657507,35.2000387 19.6959176,35.2007389 L19.6959176,35.2007389 C19.8249686,35.2002051 19.9538007,35.2114079 20.0808225,35.2342089 C20.8418328,35.3833992 21.4533403,35.9495618 21.6606057,36.6968472 Z M25.5063069,35.2342089 C25.3792852,35.2114079 25.250453,35.2002051 25.1214021,35.2007389 L25.1214021,35.2007389 C24.9912352,35.2000387 24.8612769,35.211242 24.7331503,35.2342089 C23.9670093,35.378818 23.3493956,35.9458289 23.139979,36.6968472 C23.0984617,36.8520647 23.0748787,37.0115307 23.0696921,37.172121 C23.0632117,37.302203 23.1103987,37.4292449 23.200225,37.5235558 C23.2933036,37.6195971 23.4212628,37.6739194 23.5550069,37.6741708 C23.6951625,37.6740859 23.8283392,37.6129957 23.9198297,37.5068208 C24.2217612,37.1647722 24.6551253,36.9675672 25.1113611,36.9646071 L25.1347901,36.9646071 C25.5898564,36.9685161 26.0218195,37.1656373 26.3229746,37.5068208 C26.4144651,37.6129957 26.5476417,37.6740859 26.6877974,37.6741708 C26.8215415,37.6739194 26.9495007,37.6195971 27.0425792,37.5235558 C27.1324056,37.4292449 27.1795925,37.302203 27.1731122,37.172121 C27.1624707,37.010878 27.1332705,36.8514 27.0860902,36.6968472 C26.8788248,35.9495618 26.2673173,35.3833992 25.5063069,35.2342089 L25.5063069,35.2342089 Z M38.8005848,55.0852567 C38.7987467,55.7092855 38.2933281,56.2147041 37.6692993,56.2165422 L7.12124448,56.2165422 C6.50114045,56.2092274 6.0017862,55.7054013 6,55.0852567 C6,49.3284194 13.2596396,47.0323784 16.3756952,46.3094268 C16.41395,46.2999869 16.4404356,46.2651374 16.4392882,46.2257518 L16.4392882,45.0074444 C15.7172922,44.061646 15.1791573,42.988782 14.8528109,41.8445308 C14.0327963,41.0412512 13.6713204,39.7794328 13.4771945,39.0765631 C13.1592297,37.9586656 12.8412648,36.3353714 13.7148314,35.1806569 L13.7549954,35.1304519 C13.6980964,34.7957521 13.6545854,34.4610523 13.6278095,34.1263524 C13.2328636,31.5023056 13.5374405,29.5443115 14.534846,28.3193101 C15.0711499,27.6401534 15.8520908,27.1980207 16.710395,27.0876147 C17.2191388,25.3304405 19.7026116,23.6167773 21.9551416,24.0753161 C24.1407316,24.5438959 28.7026905,24.0284581 28.7595894,24.0217641 C28.8171489,24.016414 28.8745875,24.0331669 28.9202454,24.0686221 C28.9654805,24.1061411 28.9933138,24.1605976 28.9972263,24.219237 C29.0139755,24.829395 28.7820196,25.4201578 28.3546026,25.8559192 C32.0028309,28.2891871 31.4773522,33.0921299 31.0556304,35.1237579 L31.0924474,35.1739629 C31.966014,36.3320244 31.6480491,37.9519716 31.3334312,39.0698691 C31.1393053,39.7593508 30.7778295,41.0379042 29.9611619,41.8445308 C29.6329946,42.9809013 29.0948918,44.0457545 28.3746846,44.9840154 L28.3746846,46.2224048 C28.3747446,46.2613929 28.400729,46.295583 28.4382776,46.3060798 C31.5509861,47.0323784 38.8005848,49.3317664 38.8005848,55.0852567 Z M27.3069921,48.2774618 C26.8039712,47.9954577 26.422625,47.5378424 26.2359526,46.9922144 C25.7257008,47.328922 25.177456,47.6041678 24.6026174,47.8122291 C23.1776675,48.3163122 21.6229173,48.3163122 20.1979674,47.8122291 C19.6203502,47.6071575 19.069671,47.3329417 18.5579382,46.9955614 C18.3685578,47.5344056 17.9888657,47.9855131 17.4902457,48.2640738 C18.6332872,49.8284672 20.4629663,50.7426831 22.4002924,50.7174237 C24.3339025,50.7441463 26.1613845,49.8353916 27.3069921,48.2774618 L27.3069921,48.2774618 Z M28.3110916,40.5191194 C28.4282366,40.5191194 28.8466114,40.3383815 29.3587022,38.5109204 C29.760342,37.091793 29.5896451,36.5763553 29.4557651,36.3956174 C29.334864,36.2580945 29.1504195,36.194493 28.9704503,36.2282674 C28.8973769,36.235399 28.8256357,36.2051922 28.7796714,36.1479395 C28.73421,36.0901402 28.7215742,36.0130618 28.7462014,35.9437726 L28.7462014,35.9002616 C28.8466114,35.5655617 29.2683332,33.8318165 27.8023479,32.747389 C26.5137535,33.0352309 24.4017975,33.1122119 21.5635428,31.9005984 C20.1778854,31.3081797 19.01313,31.2880977 18.1094404,31.8403525 C16.2953672,32.944862 16.0476893,36.0006715 16.0443423,36.0307945 C16.0354205,36.1478714 15.9339114,36.2359454 15.8167464,36.2282674 L15.7196835,36.2282674 C15.5662115,36.216285 15.4168566,36.2815493 15.3213907,36.4023114 C15.1841637,36.5830493 15.0168138,37.098487 15.4184536,38.5176144 C15.9338914,40.3350345 16.3522662,40.5057314 16.4660641,40.5258134 C16.5660637,40.5324466 16.6480975,40.6075285 16.6635371,40.7065514 C16.9580729,42.6042995 18.3939352,45.0576493 20.8606731,45.9111339 C21.8435494,46.2606548 22.9168714,46.2606548 23.8997477,45.9111339 C26.2660756,45.0576493 27.8090419,42.6511575 28.1069247,40.7098984 C28.1187817,40.6020957 28.2093379,40.5201639 28.3177856,40.5191194 L28.3110916,40.5191194 Z" id="Shape" fill="#0099FF"></path>
            </g>
        </g>
    </g>
</svg>