<?xml version="1.0" encoding="UTF-8" standalone="no"?>
<svg width="90px" height="72px" viewBox="0 0 90 72" version="1.1" xmlns="http://www.w3.org/2000/svg" xmlns:xlink="http://www.w3.org/1999/xlink">
    <!-- Generator: Sketch 42 (36781) - http://www.bohemiancoding.com/sketch -->
    <title>Group 12</title>
    <desc>Created with Sketch.</desc>
    <defs></defs>
    <g id="final" stroke="none" stroke-width="1" fill="none" fill-rule="evenodd">
        <g id="Landing" transform="translate(-1066.000000, -1312.000000)">
            <g id="Group-12" transform="translate(1066.000000, 1312.000000)">
                <g id="noun_741308_cc" fill="#000000">
                    <g id="Group">
                        <path d="M14,7.1 C14,7.9 13.3,8.6 12.5,8.6 C11.7,8.6 11,7.9 11,7.1 C11,6.3 11.7,5.6 12.5,5.6 C13.4,5.6 14,6.3 14,7.1 Z M7.5,5.6 C6.7,5.6 6,6.3 6,7.1 C6,7.9 6.7,8.6 7.5,8.6 C8.3,8.6 9,7.9 9,7.1 C9,6.3 8.4,5.6 7.5,5.6 Z M90,6.5 L90,65.5 C90,68.8 87.3,71.5 84,71.5 L6,71.5 C2.7,71.5 0,68.8 0,65.5 L0,6.5 C0,3.2 2.7,0.5 6,0.5 L84,0.5 C87.3,0.5 90,3.2 90,6.5 Z M88,13.6 L2,13.6 L2,65.5 C2,67.7 3.8,69.5 6,69.5 L84,69.5 C86.2,69.5 88,67.7 88,65.5 L88,13.6 Z M88,6.5 C88,4.3 86.2,2.5 84,2.5 L6,2.5 C3.8,2.5 2,4.3 2,6.5 L2,11.6 L88,11.6 L88,6.5 Z M17.5,5.6 C16.7,5.6 16,6.3 16,7.1 C16,7.9 16.7,8.6 17.5,8.6 C18.3,8.6 19,7.9 19,7.1 C19,6.3 18.4,5.6 17.5,5.6 Z" id="Shape"></path>
                    </g>
                </g>
                <circle id="Oval-2" fill="#0099FF" cx="29" cy="33" r="5"></circle>
                <circle id="Oval-2-Copy" fill="#0099FF" cx="59" cy="33" r="5"></circle>
                <path d="M28.9570899,48.1107126 C28.9570899,48.1107126 42.5243051,63.0224095 59.1665677,48.1107126" id="Path-2" stroke="#0099FF" stroke-width="4" stroke-linecap="round"></path>
            </g>
        </g>
    </g>
</svg>