<?xml version="1.0" encoding="UTF-8" standalone="no"?>
<svg width="78px" height="80px" viewBox="0 0 78 80" version="1.1" xmlns="http://www.w3.org/2000/svg" xmlns:xlink="http://www.w3.org/1999/xlink">
    <!-- Generator: Sketch 42 (36781) - http://www.bohemiancoding.com/sketch -->
    <title>Group 7</title>
    <desc>Created with Sketch.</desc>
    <defs></defs>
    <g id="final" stroke="none" stroke-width="1" fill="none" fill-rule="evenodd">
        <g id="Landing" transform="translate(-681.000000, -1056.000000)">
            <g id="Group-7" transform="translate(681.000000, 1056.000000)">
                <g id="noun_531784_cc" fill="#424242">
                    <g id="Group">
                        <path d="M58.2857143,45.3333333 L46.984127,41.3968254 C45.2063492,41.015873 42.5396825,38.984127 42.5396825,37.5873016 L42.5396825,35.9365079 C46.984127,32.5079365 49.9047619,26.6666667 50.1587302,21.0793651 L50.6666667,13.0793651 C51.1746032,9.14285714 48.7619048,5.58730159 44.952381,4.57142857 C42.1587302,2.03174603 38.6031746,0.634920635 34.9206349,0.634920635 C31.2380952,0.634920635 27.6825397,2.03174603 24.8888889,4.57142857 C21.0793651,5.58730159 18.6666667,9.14285714 19.1746032,12.952381 L19.6825397,20.952381 C19.9365079,26.4126984 22.8571429,32.3809524 27.3015873,35.8095238 L27.3015873,37.4603175 C27.3015873,38.8571429 24.7619048,40.8888889 22.8571429,41.2698413 L11.5555556,45.3333333 C5.07936508,47.7460317 0.634920635,53.968254 0.634920635,60.952381 L0.634920635,79.3650794 L69.0793651,79.3650794 L69.0793651,60.952381 C69.2063492,53.968254 64.7619048,47.7460317 58.2857143,45.3333333 Z M26.1587302,6.85714286 C26.1587302,6.85714286 29.4603175,3.17460317 34.9206349,3.17460317 C40.2539683,3.17460317 43.6825397,6.85714286 43.6825397,6.85714286 C43.6825397,6.85714286 47.3650794,7.49206349 48,11.047619 C48,11.047619 43.8095238,7.74603175 39.1111111,10.5396825 C36.3174603,12.1904762 33.3968254,12.1904762 30.6031746,10.5396825 C26.031746,7.87301587 21.7142857,11.1746032 21.7142857,11.1746032 C22.6031746,7.23809524 26.1587302,6.85714286 26.1587302,6.85714286 Z M22.2222222,20.8253968 L21.7142857,13.968254 C25.9047619,11.4285714 27.6825397,11.6825397 29.2063492,12.6984127 C32.7619048,14.8571429 36.8253968,14.8571429 40.3809524,12.6984127 C41.9047619,11.8095238 43.9365079,11.3015873 47.8730159,13.968254 L47.3650794,20.8253968 C47.1111111,28.0634921 41.6507937,36.0634921 34.6666667,36.0634921 C28.0634921,36.0634921 22.6031746,28.0634921 22.2222222,20.8253968 Z M23.6190476,43.8095238 C30.0952381,41.5238095 29.8412698,37.4603175 29.8412698,37.4603175 C31.3650794,38.2222222 33.1428571,38.7301587 34.9206349,38.7301587 C36.6984127,38.7301587 38.3492063,38.2222222 40,37.4603175 C40,37.4603175 39.8730159,41.7777778 46.2222222,43.8095238 L48.6349206,44.6984127 L40.8888889,65.3968254 L38.984127,51.4285714 L40.2539683,51.4285714 L42.1587302,47.6190476 L40.2539683,43.8095238 L29.8412698,43.8095238 L27.9365079,47.6190476 L29.8412698,51.4285714 L31.1111111,51.4285714 L29.2063492,65.3968254 L21.4603175,44.5714286 L23.6190476,43.8095238 Z M30.8571429,70.3492063 L33.5238095,51.4285714 L36.4444444,51.4285714 L39.1111111,70.3492063 L36.6984127,76.8253968 L33.3968254,76.8253968 L30.8571429,70.3492063 Z M31.2380952,48.8888889 L30.6031746,47.6190476 L31.2380952,46.3492063 L38.6031746,46.3492063 L39.2380952,47.6190476 L38.6031746,48.8888889 L38.6031746,48.8888889 L31.2380952,48.8888889 L31.2380952,48.8888889 Z M3.17460317,60.952381 C3.17460317,55.1111111 6.85714286,49.7777778 12.4444444,47.8730159 L18.7936508,45.5873016 L30.4761905,76.8253968 L15.8730159,76.8253968 L15.8730159,65.3968254 L13.3333333,65.3968254 L13.3333333,76.8253968 L3.17460317,76.8253968 L3.17460317,60.952381 Z M66.6666667,76.8253968 L56.5079365,76.8253968 L56.5079365,65.3968254 L53.968254,65.3968254 L53.968254,76.8253968 L39.2380952,76.8253968 L50.9206349,45.4603175 L57.2698413,47.7460317 C62.8571429,49.7777778 66.5396825,54.984127 66.5396825,60.8253968 L66.5396825,76.8253968 L66.6666667,76.8253968 Z" id="Shape"></path>
                    </g>
                </g>
                <path d="M51.8224593,47.6779174 C54.4296144,47.6726765 56.9304432,48.7109953 58.7671942,50.561301 L59.9847205,51.7920135 L61.2242238,50.5656964 C65.0584812,46.726584 71.2789765,46.7226483 75.1180889,50.5569057 C78.9572013,54.3911631 78.9611371,60.6116583 75.1268798,64.4507708 L74.8192017,64.7628443 L59.9847205,79.6105118 L44.8777244,64.4507708 C42.0682161,61.6424133 41.2275595,57.4179401 42.7478986,53.7479568 C44.2682378,50.0779735 47.8500284,47.6855576 51.8224593,47.6867082 L51.8224593,47.6779174 Z" id="Shape" fill="#0099FF"></path>
            </g>
        </g>
    </g>
</svg>