<?xml version="1.0" encoding="UTF-8" standalone="no"?>
<svg width="42px" height="80px" viewBox="0 0 42 80" version="1.1" xmlns="http://www.w3.org/2000/svg" xmlns:xlink="http://www.w3.org/1999/xlink">
    <!-- Generator: Sketch 42 (36781) - http://www.bohemiancoding.com/sketch -->
    <title>noun_685603_cc</title>
    <desc>Created with Sketch.</desc>
    <defs></defs>
    <g id="final" stroke="none" stroke-width="1" fill="none" fill-rule="evenodd">
        <g id="Landing" transform="translate(-309.000000, -1056.000000)">
            <g id="noun_685603_cc" transform="translate(309.000000, 1056.000000)">
                <g id="Group">
                    <g id="Shape">
                        <path d="M26.2857143,35.012987 L38.3376623,20.3636364 C39.0649351,19.4285714 39.4805195,18.2857143 39.4805195,17.1428571 L39.4805195,5.61038961 C39.4805195,2.80519481 37.1948052,0.519480519 34.3896104,0.519480519 L7.27272727,0.519480519 C4.46753247,0.519480519 2.18181818,2.80519481 2.18181818,5.61038961 L2.18181818,17.1428571 C2.18181818,18.2857143 2.5974026,19.4285714 3.32467532,20.3636364 L15.3766234,35.012987 C16,35.7402597 16.8311688,36.3636364 17.7662338,36.6753247 C18.8051948,36.987013 19.8441558,37.1948052 20.8831169,37.1948052 C21.9220779,37.1948052 22.961039,36.987013 24,36.6753247 C24.8311688,36.3636364 25.6623377,35.7402597 26.2857143,35.012987 Z M22.8571429,33.5584416 C21.5064935,33.974026 20.0519481,33.974026 18.7012987,33.5584416 C18.3896104,33.4545455 18.0779221,33.2467532 17.8701299,32.9350649 L5.81818182,18.3896104 C5.50649351,18.0779221 5.4025974,17.6623377 5.4025974,17.2467532 L5.4025974,5.61038961 C5.4025974,4.57142857 6.23376623,3.74025974 7.27272727,3.74025974 L34.2857143,3.74025974 C35.3246753,3.74025974 36.1558442,4.57142857 36.1558442,5.61038961 L36.1558442,17.1428571 C36.1558442,17.5584416 36.0519481,17.974026 35.7402597,18.2857143 L23.6883117,32.9350649 C23.4805195,33.2467532 23.1688312,33.4545455 22.8571429,33.5584416 Z" fill="#424242"></path>
                        <path d="M1.45454545,54.4415584 L6.54545455,58.0779221 L1.45454545,61.7142857 C0.623376623,62.3376623 0.311688312,63.3766234 0.623376623,64.3116883 C0.935064935,65.2467532 1.87012987,65.974026 2.90909091,65.974026 L9.66233766,65.974026 L7.48051948,72.7272727 C7.16883117,73.6623377 7.48051948,74.8051948 8.31168831,75.3246753 C9.14285714,75.9480519 10.2857143,75.9480519 11.1168831,75.3246753 L16.6233766,71.3766234 L18.5974026,77.4025974 C18.9090909,78.3376623 19.8441558,79.0649351 20.8831169,79.0649351 C21.9220779,79.0649351 22.8571429,78.4415584 23.1688312,77.4025974 L25.1428571,71.3766234 L30.6493506,75.3246753 C31.0649351,75.6363636 31.5844156,75.7402597 32,75.7402597 C32.5194805,75.7402597 32.9350649,75.6363636 33.3506494,75.3246753 C34.1818182,74.7012987 34.4935065,73.6623377 34.1818182,72.7272727 L32,66.0779221 L38.7532468,66.0779221 C39.7922078,66.0779221 40.7272727,65.4545455 41.038961,64.4155844 C41.3506494,63.4805195 41.038961,62.3376623 40.2077922,61.8181818 L35.1168831,58.1818182 L40.2077922,54.5454545 C41.038961,53.9220779 41.3506494,52.8831169 41.038961,51.9480519 C40.7272727,51.012987 39.7922078,50.2857143 38.7532468,50.2857143 L32,50.2857143 L34.1818182,43.6363636 C34.4935065,42.7012987 34.1818182,41.5584416 33.3506494,41.038961 C32.5194805,40.4155844 31.3766234,40.4155844 30.5454545,41.038961 L24.9350649,44.7792208 L22.961039,38.7532468 C22.6493506,37.8181818 21.7142857,37.0909091 20.6753247,37.0909091 C19.6363636,37.0909091 18.7012987,37.7142857 18.3896104,38.7532468 L16.6233766,44.7792208 L11.1168831,40.8311688 C10.2857143,40.2077922 9.14285714,40.2077922 8.31168831,40.8311688 C7.48051948,41.4545455 7.16883117,42.4935065 7.48051948,43.4285714 L9.66233766,50.0779221 L2.90909091,50.0779221 C1.87012987,50.0779221 0.935064935,50.7012987 0.623376623,51.7402597 C0.311688312,52.7792208 0.623376623,53.8181818 1.45454545,54.4415584 Z M11.4285714,71.1688312 L13.0909091,66.0779221 L14.8571429,66.0779221 L15.5844156,68.1558442 L11.4285714,71.1688312 Z M26.0779221,68.1558442 L26.8051948,66.0779221 L28.5714286,66.0779221 L30.2337662,71.1688312 L26.0779221,68.1558442 Z M30.8571429,53.4025974 L35.9480519,53.4025974 L32.2077922,56.1038961 L30.4415584,54.7532468 L30.8571429,53.4025974 Z M20.7792208,42.3896104 L22.2337662,46.8571429 L20.7792208,47.8961039 L19.3246753,46.8571429 L20.7792208,42.3896104 Z M15.4805195,48 L18.2857143,49.974026 L19.4285714,50.8051948 C20.2597403,51.4285714 21.4025974,51.4285714 22.2337662,50.8051948 L23.3766234,49.974026 L26.1818182,48 L30.3376623,44.987013 L28.6753247,50.0779221 L27.6363636,53.2987013 L27.3246753,54.3376623 C27.012987,55.2727273 27.3246753,56.4155844 28.1558442,56.9350649 L29.6103896,57.974026 L32.4155844,59.9480519 L36.1558442,62.6493506 L31.0649351,62.6493506 L27.6363636,62.6493506 L26.2857143,62.6493506 C25.2467532,62.6493506 24.3116883,63.2727273 24,64.3116883 L23.4805195,65.974026 L22.4415584,69.1948052 L20.7792208,73.8701299 L19.3246753,69.4025974 L18.2857143,66.1818182 L17.7662338,64.4155844 C17.4545455,63.4805195 16.5194805,62.7532468 15.4805195,62.7532468 L14.1298701,62.7532468 L10.7012987,62.7532468 L5.61038961,62.7532468 L9.35064935,60.0519481 L12.1558442,58.0779221 L13.6103896,57.038961 C14.4415584,56.4155844 14.7532468,55.3766234 14.4415584,54.4415584 L14.1298701,53.4025974 L13.0909091,50.1818182 L11.4285714,44.987013 L15.4805195,48 Z M10.7012987,53.4025974 L11.1168831,54.8571429 L9.35064935,56.1038961 L5.61038961,53.4025974 L10.7012987,53.4025974 Z" fill="#0099FF"></path>
                    </g>
                </g>
            </g>
        </g>
    </g>
</svg>