<?xml version="1.0" encoding="UTF-8" standalone="no"?>
<svg width="76px" height="81px" viewBox="0 0 76 81" version="1.1" xmlns="http://www.w3.org/2000/svg" xmlns:xlink="http://www.w3.org/1999/xlink">
    <!-- Generator: Sketch 42 (36781) - http://www.bohemiancoding.com/sketch -->
    <title>Group 10</title>
    <desc>Created with Sketch.</desc>
    <defs></defs>
    <g id="final" stroke="none" stroke-width="1" fill="none" fill-rule="evenodd">
        <g id="Landing" transform="translate(-1075.000000, -1055.000000)">
            <g id="Group-10" transform="translate(1075.000000, 1055.000000)">
                <g id="noun_727045_cc" transform="translate(0.000000, 1.000000)" fill="#434343">
                    <g id="Artboard-17">
                        <g id="Group">
                            <path d="M29.2,14.88 L29.2,12.8 C29.2080215,5.96596838 23.8460149,0.331018927 17.02,0 C16.8146667,1.0658141e-15 16.608,1.42108547e-15 16.4,1.42108547e-15 L16.4,1.42108547e-15 L15.78,1.42108547e-15 C8.95398513,0.331018927 3.59197854,5.96596838 3.6,12.8 L3.6,14.88 C1.58608578,15.2889374 0.209705053,17.1573875 0.416231245,19.2019968 C0.622757438,21.2466061 2.34498759,22.8020653 4.4,22.8 L4.4,24 C4.4,30.627417 9.772583,36 16.4,36 C23.027417,36 28.4,30.627417 28.4,24 L28.4,22.8 C30.4550124,22.8020653 32.1772426,21.2466061 32.3837688,19.2019968 C32.5902949,17.1573875 31.2139142,15.2889374 29.2,14.88 L29.2,14.88 Z M24,15.92 L17.6,15.92 C17.3790861,15.92 17.2,16.0990861 17.2,16.32 L17.2,16.876 C16.6873915,16.6657313 16.1126085,16.6657313 15.6,16.876 L15.6,16.32 C15.6,16.0990861 15.4209139,15.92 15.2,15.92 L6,15.92 L6,13.6 C5.99621923,11.6375815 6.55118129,9.71463796 7.6,8.056 L7.728,7.96 C9.456,9.456 12.688,10.464 16.392,10.464 C20.096,10.464 23.328,9.456 25.056,7.96 L25.184,8.056 C26.2384497,9.71293534 26.7989965,11.6359995 26.8,13.6 L26.8,15.92 L24,15.92 Z M2,18.8 C2.00116097,17.7839272 2.64203652,16.8786905 3.6,16.54 L3.6,18.8 C3.6,19.2418278 3.9581722,19.6 4.4,19.6 L4.4,21.2 C3.0745166,21.2 2,20.1254834 2,18.8 L2,18.8 Z M16.4,34.4 C10.6562386,34.4 6,29.7437614 6,24 L6,16.72 L8.4,16.72 L8.4,17.28 C8.41118194,19.1501651 9.85251133,20.7003081 11.7169217,20.8473337 C13.581332,20.9943594 15.2478203,19.689296 15.552,17.844 C16.0437192,17.4359974 16.7562808,17.4359974 17.248,17.844 C17.5521797,19.689296 19.218668,20.9943594 21.0830783,20.8473337 C22.9474887,20.7003081 24.3888181,19.1501651 24.4,17.28 L24.4,16.72 L26.8,16.72 L26.8,24 C26.8,29.7437614 22.1437614,34.4 16.4,34.4 Z M28.4,21.2 L28.4,19.6 C28.8418278,19.6 29.2,19.2418278 29.2,18.8 L29.2,16.54 C30.2978934,16.9323628 30.9549866,18.0570008 30.7577183,19.206089 C30.5604499,20.3551771 29.5658921,21.1962699 28.4,21.2 Z" id="Shape"></path>
                            <path d="M16.16,23.768 C16.3022222,23.8746667 16.4977778,23.8746667 16.64,23.768 L18.24,22.568 C18.354325,22.4822563 18.4142219,22.3420341 18.3971281,22.2001539 C18.3800344,22.0582737 18.2885469,21.9362904 18.1571281,21.8801539 C18.0257094,21.8240174 17.874325,21.8422562 17.76,21.928 L16.4,22.948 L15.04,21.928 C14.925675,21.8422562 14.7742906,21.8240174 14.6428719,21.8801539 C14.5114531,21.9362904 14.4199656,22.0582737 14.4028719,22.2001539 C14.3857781,22.3420341 14.445675,22.4822563 14.56,22.568 L16.16,23.768 Z" id="Shape"></path>
                            <path d="M20.116,26.12 C18.2369357,28.0429015 15.2018777,28.2163334 13.116,26.52 C13.2421019,26.4510311 13.3215062,26.3197086 13.324,26.176 C13.324,25.9550861 13.1449139,25.776 12.924,25.776 C12.2612583,25.776 11.724,26.3132583 11.724,26.976 C11.724,27.1969139 11.9030861,27.376 12.124,27.376 C12.3171043,27.3798943 12.4854105,27.2452493 12.524,27.056 C14.9210016,29.1016732 18.4920736,28.9444342 20.7,26.696 C20.8557443,26.5391511 20.8548488,26.2857443 20.698,26.13 C20.5411511,25.9742557 20.2877443,25.9751512 20.132,26.132 L20.116,26.12 Z" id="Shape"></path>
                        </g>
                    </g>
                </g>
                <g id="noun_727122_cc" transform="translate(0.000000, 45.000000)" fill="#0099FF">
                    <g id="Artboard-89">
                        <g id="Group">
                            <path d="M29.6,15.12 L29.6,13.6 C29.6,6.0889274 23.5110726,3.55271368e-16 16,0 C8.4889274,-3.55271368e-16 2.4,6.0889274 2.4,13.6 L2.4,15.12 C0.944822463,15.7573205 0.00471305846,17.1953782 0.00471305846,18.784 C0.00471305846,20.3726218 0.944822463,21.8106795 2.4,22.448 L2.4,32 C2.4,34.209139 4.190861,36 6.4,36 L25.6,36 C27.809139,36 29.6,34.209139 29.6,32 L29.6,22.448 C31.0551775,21.8106795 31.9952869,20.3726218 31.9952869,18.784 C31.9952869,17.1953782 31.0551775,15.7573205 29.6,15.12 L29.6,15.12 Z M8.976,5.92 L8.976,5.92 C9.076,6.156 9.188,6.388 9.304,6.616 L9.368,6.744 C9.48,6.956 9.596,7.144 9.72,7.364 L9.82,7.528 C9.94,7.72266667 10.0666667,7.912 10.2,8.096 L10.328,8.272 C10.46,8.452 10.596,8.628 10.728,8.8 L10.872,8.968 C11.016,9.14 11.164,9.308 11.32,9.468 L11.46,9.608 C11.624,9.772 11.788,9.936 11.96,10.092 L11.96,10.092 C12.3392828,10.4358379 12.7400953,10.7551519 13.16,11.048 L13.292,11.144 C13.436,11.24 13.588,11.332 13.74,11.42 C13.892,11.508 13.968,11.56 14.084,11.628 C14.2,11.696 14.364,11.776 14.508,11.848 C14.652,11.92 14.78,11.988 14.908,12.052 L15.308,12.232 L15.764,12.412 L16.164,12.556 C16.328,12.612 16.496,12.66 16.664,12.708 L17.064,12.816 C17.244,12.86 17.428,12.9 17.616,12.936 L17.996,13.008 C18.204,13.044 18.42,13.068 18.632,13.088 L18.952,13.124 C19.276,13.152 19.6,13.164 19.932,13.164 L19.932,13.164 C20.184,13.164 20.432,13.164 20.68,13.14 L20.868,13.14 C21.1,13.14 21.336,13.1 21.564,13.068 L21.604,13.068 C21.852,13.032 22.096,12.988 22.34,12.94 L22.488,12.908 C22.72,12.856 22.952,12.8 23.18,12.736 L23.204,12.736 C23.448,12.668 23.692,12.588 23.932,12.504 L24.016,12.472 C24.4952663,12.2981293 24.9628921,12.09371 25.416,11.86 L25.452,11.86 C25.6786667,11.7426667 25.9013333,11.6173333 26.12,11.484 L26.12,11.484 C26.2856575,12.1778637 26.3794848,12.8869304 26.4,13.6 L26.4,15.92 L23.536,15.92 C22.8033392,14.6168247 21.3414979,13.9020906 19.8630794,14.1242087 C18.384661,14.3463269 17.19738,15.4590662 16.88,16.92 C16.3225252,16.6520534 15.6734748,16.6520534 15.116,16.92 C14.79862,15.4590662 13.611339,14.3463269 12.1329206,14.1242087 C10.6545021,13.9020906 9.19266081,14.6168247 8.46,15.92 L5.6,15.92 L5.6,13.6 C5.59361539,10.6788119 6.81937093,7.8903633 8.976,5.92 L8.976,5.92 Z M20.4,14.864 C21.9463973,14.864 23.2,16.1176027 23.2,17.664 C23.2,19.2103973 21.9463973,20.464 20.4,20.464 C18.8536027,20.464 17.6,19.2103973 17.6,17.664 C17.6,16.1176027 18.8536027,14.864 20.4,14.864 L20.4,14.864 Z M11.6,14.864 C13.1463973,14.864 14.4,16.1176027 14.4,17.664 C14.4,19.2103973 13.1463973,20.464 11.6,20.464 C10.0536027,20.464 8.8,19.2103973 8.8,17.664 C8.8,16.1176027 10.0536027,14.864 11.6,14.864 Z M4,21.2 C2.6745166,21.2 1.6,20.1254834 1.6,18.8 C1.6,17.4745166 2.6745166,16.4 4,16.4 L4,21.2 Z M16,34.4 C10.2562386,34.4 5.6,29.7437614 5.6,24 L5.6,16.704 L8.132,16.704 C7.76368652,18.0400554 8.19502009,19.468906 9.24108579,20.3779964 C10.2871515,21.2870868 11.7621865,21.5149784 13.0338357,20.9639731 C14.305485,20.4129677 15.147926,19.1809141 15.2,17.796 C15.6734766,17.4386566 16.3265234,17.4386566 16.8,17.796 C16.8398619,19.1892576 17.6803992,20.4343091 18.9577283,20.9921496 C20.2350574,21.5499901 21.719621,21.3203664 22.7687251,20.4026866 C23.8178293,19.4850069 24.2429325,18.0441934 23.86,16.704 L26.4,16.704 L26.4,24 C26.4,26.7582515 25.3042889,29.4035322 23.3539105,31.3539105 C21.4035322,33.3042889 18.7582515,34.4 16,34.4 Z M29.6,20.568 C29.1630859,20.9691401 28.5931059,21.1942822 28,21.2 L28,16.4 C28.9927617,16.4022354 29.8816795,17.0154782 30.2362783,17.942754 C30.590877,18.8700298 30.3379572,19.9199218 29.6,20.584 L29.6,20.568 Z" id="Shape"></path>
                            <path d="M19.2,18.984 C19.4209139,18.984 19.6,18.8049139 19.6,18.584 C19.6,18.1421722 19.9581722,17.784 20.4,17.784 C20.8418278,17.784 21.2,18.1421722 21.2,18.584 C21.2,18.8049139 21.3790861,18.984 21.6,18.984 C21.8209139,18.984 22,18.8049139 22,18.584 C22,17.7003444 21.2836556,16.984 20.4,16.984 C19.5163444,16.984 18.8,17.7003444 18.8,18.584 C18.8,18.8049139 18.9790861,18.984 19.2,18.984 Z" id="Shape"></path>
                            <path d="M10.4,18.984 C10.6209139,18.984 10.8,18.8049139 10.8,18.584 C10.8,18.1421722 11.1581722,17.784 11.6,17.784 C12.0418278,17.784 12.4,18.1421722 12.4,18.584 C12.4,18.8049139 12.5790861,18.984 12.8,18.984 C13.0209139,18.984 13.2,18.8049139 13.2,18.584 C13.2,17.7003444 12.4836556,16.984 11.6,16.984 C10.7163444,16.984 10,17.7003444 10,18.584 C10,18.8049139 10.1790861,18.984 10.4,18.984 Z" id="Shape"></path>
                            <path d="M16,23.6 C16.5571195,23.6012818 17.0915573,23.3794397 17.484,22.984 C17.6452671,22.8271511 17.6488489,22.5692671 17.492,22.408 C17.3351511,22.2467329 17.0772671,22.2431511 16.916,22.4 C16.4025533,22.8911807 15.5934467,22.8911807 15.08,22.4 C14.9212959,22.2640893 14.6847223,22.2732271 14.5369747,22.4209747 C14.3892271,22.5687223 14.3800893,22.8052959 14.516,22.964 C14.9051141,23.3667893 15.4399704,23.5960134 16,23.6 Z" id="Shape"></path>
                            <path d="M16.916,27.6 C16.4025533,28.0911807 15.5934467,28.0911807 15.08,27.6 C14.9212959,27.4640893 14.6847223,27.4732271 14.5369747,27.6209747 C14.3892271,27.7687223 14.3800893,28.0052959 14.516,28.164 C15.334517,28.9824112 16.661483,28.9824112 17.48,28.164 C17.6159107,28.0052959 17.6067729,27.7687223 17.4590253,27.6209747 C17.3112777,27.4732271 17.0747041,27.4640893 16.916,27.6 L16.916,27.6 Z" id="Shape"></path>
                            <path d="M20,26 L18.3,26 C18.1551837,25.5381796 17.7802607,25.1851438 17.3105741,25.0683348 C16.8408875,24.9515258 16.3442719,25.0878137 16,25.428 C15.6557281,25.0878137 15.1591125,24.9515258 14.6894259,25.0683348 C14.2197393,25.1851438 13.8448163,25.5381796 13.7,26 L12,26 C11.7790861,26 11.6,26.1790861 11.6,26.4 C11.6,26.6209139 11.7790861,26.8 12,26.8 L14.04,26.8 C14.2609139,26.8 14.44,26.6209139 14.44,26.4 C14.44,26.0796748 14.6996748,25.82 15.02,25.82 C15.3403252,25.82 15.6,26.0796748 15.6,26.4 C15.6,26.6209139 15.7790861,26.8 16,26.8 C16.2209139,26.8 16.4,26.6209139 16.4,26.4 C16.4,26.0796748 16.6596748,25.82 16.98,25.82 C17.3003252,25.82 17.56,26.0796748 17.56,26.4 C17.56,26.6209139 17.7390861,26.8 17.96,26.8 L20,26.8 C20.2209139,26.8 20.4,26.6209139 20.4,26.4 C20.4,26.1790861 20.2209139,26 20,26 Z" id="Shape"></path>
                        </g>
                    </g>
                </g>
                <g id="noun_727095_cc" transform="translate(44.000000, 0.000000)" fill="#0099FF">
                    <g id="Artboard-60">
                        <g id="Group">
                            <path d="M29.2747253,15.1674725 L29.2747253,13.6483516 C29.2747253,6.21981831 23.2527092,0.197802198 15.8241758,0.197802198 C8.39564249,0.197802198 2.37362637,6.21981831 2.37362637,13.6483516 L2.37362637,15.1674725 C0.934439799,15.7977895 0.00466126661,17.2200444 0.00466126661,18.7912088 C0.00466126661,20.3623732 0.934439799,21.7846281 2.37362637,22.4149451 L2.37362637,31.8778022 C2.37362637,34.0626649 4.14480758,35.8338462 6.32967033,35.8338462 L25.3186813,35.8338462 C27.5035441,35.8338462 29.2747253,34.0626649 29.2747253,31.8778022 L29.2747253,22.4149451 C30.7139118,21.7846281 31.6436904,20.3623732 31.6436904,18.7912088 C31.6436904,17.2200444 30.7139118,15.7977895 29.2747253,15.1674725 Z M3.95604396,21.1648352 C2.64512634,21.1648351 1.58241765,20.1021264 1.58241765,18.7912088 C1.58241765,17.4802912 2.64512634,16.4175825 3.95604396,16.4175824 L3.95604396,21.1648352 Z M15.8241758,34.2197802 C10.1435327,34.2197802 5.53846154,29.6147091 5.53846154,23.9340659 L5.53846154,13.6483516 C5.54047798,12.7887009 5.65079729,11.9327294 5.86681319,11.1006593 C9.33910146,9.18157164 13.4357668,8.73447319 17.2402694,9.85939256 C21.044772,10.9843119 24.2395676,13.5873573 26.1098901,17.0861538 L26.1098901,23.9340659 C26.1098901,26.662007 25.0262198,29.2782186 23.0972741,31.2071643 C21.1683285,33.1361099 18.5521169,34.2197802 15.8241758,34.2197802 Z M29.2747253,20.5714286 C28.8402537,20.9624099 28.2767991,21.1793399 27.6923077,21.1806593 L27.6923077,16.4334066 C28.6741599,16.4356174 29.5533094,17.0421213 29.9040115,17.9592073 C30.2547136,18.8762932 30.0045731,19.9146479 29.2747253,20.5714286 L29.2747253,20.5714286 Z" id="Shape"></path>
                            <path d="M20.1758242,17.192967 C19.3018791,17.192967 18.5934066,17.9014395 18.5934066,18.7753846 C18.5934066,18.9938709 18.7705247,19.170989 18.989011,19.170989 C19.2074973,19.170989 19.3846154,18.9938709 19.3846154,18.7753846 C19.3846154,18.3384121 19.7388516,17.9841758 20.1758242,17.9841758 C20.6127967,17.9841758 20.967033,18.3384121 20.967033,18.7753846 C20.967033,18.9938709 21.1441511,19.170989 21.3626374,19.170989 C21.5811236,19.170989 21.7582418,18.9938709 21.7582418,18.7753846 C21.7582418,17.9014395 21.0497693,17.192967 20.1758242,17.192967 Z" id="Shape"></path>
                            <path d="M12.2637363,18.7753846 C12.2637363,18.9938709 12.4408544,19.170989 12.6593407,19.170989 C12.8778269,19.170989 13.0549451,18.9938709 13.0549451,18.7753846 C13.0549451,17.9014395 12.3464726,17.192967 11.4725275,17.192967 C10.5985824,17.192967 9.89010989,17.9014395 9.89010989,18.7753846 C9.89010989,18.9938709 10.067228,19.170989 10.2857143,19.170989 C10.5042006,19.170989 10.6813187,18.9938709 10.6813187,18.7753846 C10.6813187,18.3384121 11.0355549,17.9841758 11.4725275,17.9841758 C11.9095,17.9841758 12.2637363,18.3384121 12.2637363,18.7753846 Z" id="Shape"></path>
                            <path d="M15.8241758,23.7362637 C16.3751731,23.7375314 16.903738,23.5181271 17.2918681,23.127033 C17.4513631,22.9719077 17.4549055,22.7168576 17.2997802,22.5573626 C17.144655,22.3978677 16.8896049,22.3943253 16.7301099,22.5494505 C16.2223054,23.0352336 15.4220902,23.0352336 14.9142857,22.5494505 C14.7573256,22.4150334 14.5233518,22.4240708 14.3772277,22.5701948 C14.2311037,22.7163188 14.2220663,22.9502926 14.3564835,23.1072527 C14.7413217,23.5056158 15.2703004,23.732321 15.8241758,23.7362637 Z" id="Shape"></path>
                            <path d="M19.7802198,25.7340659 L11.8681319,25.7340659 C11.6496456,25.7340659 11.4725275,25.9111841 11.4725275,26.1296703 C11.4725275,28.5330194 13.4208268,30.4813187 15.8241758,30.4813187 C18.2275248,30.4813187 20.1758242,28.5330194 20.1758242,26.1296703 C20.1758242,25.9111841 19.9987061,25.7340659 19.7802198,25.7340659 Z M18.7556044,28.1432967 C18.2887912,27.4193407 17.1731868,26.9208791 15.8241758,26.9208791 C14.4751648,26.9208791 13.3595604,27.4193407 12.8927473,28.1432967 C12.5603433,27.6622805 12.3523815,27.1063563 12.2874725,26.5252747 L19.3608791,26.5252747 C19.2959702,27.1063563 19.0880083,27.6622805 18.7556044,28.1432967 L18.7556044,28.1432967 Z" id="Shape"></path>
                        </g>
                    </g>
                </g>
                <g id="noun_727057_cc" transform="translate(44.000000, 44.000000)" fill="#424242">
                    <g id="Artboard-28">
                        <g id="Group">
                            <path d="M28.932,14.916 L28.932,12.8 C28.932,5.7307552 23.2012448,3.55271368e-16 16.132,0 C9.0627552,-3.55271368e-16 3.332,5.7307552 3.332,12.8 L3.332,14.86 C1.29228803,15.2171387 -0.137643142,17.0719466 0.0359571381,19.1353991 C0.209557418,21.1988515 1.92928884,22.7886752 4,22.8 L4,24 C4,30.627417 9.372583,36 16,36 C22.627417,36 28,30.627417 28,24 L28,22.8 C30.0182942,22.7878775 31.7113703,21.2740329 31.9483156,19.2696588 C32.1852608,17.2652847 30.8918355,15.3983936 28.932,14.916 L28.932,14.916 Z M1.6,18.8 C1.60051742,17.7322211 2.30641476,16.7931984 3.332,16.496 L3.332,18.8 C3.3265913,19.1950253 3.61034639,19.5348517 4,19.6 L4,21.2 C2.6745166,21.2 1.6,20.1254834 1.6,18.8 L1.6,18.8 Z M26.4,24 C26.4,29.7437614 21.7437614,34.4 16,34.4 C10.2562386,34.4 5.6,29.7437614 5.6,24 L5.6,13.6 C5.59908466,12.5219753 5.76643196,11.4504127 6.096,10.424 C7.11809005,10.6280259 8.15774573,10.7311876 9.2,10.732 C13.9943329,10.7353049 18.5336594,8.57295086 21.552,4.848 L21.552,5.16 C21.5566744,7.7577476 23.4012608,9.98802026 25.952,10.48 C26.2595323,11.4910761 26.4106125,12.5432415 26.4,13.6 L26.4,24 Z M28,21.2 L28,19.6 C28.2339252,19.639157 28.4731661,19.5724969 28.6531374,19.4180151 C28.8331087,19.2635333 28.9352546,19.0371575 28.932,18.8 L28.932,16.588 C29.9850467,17.0312879 30.5796019,18.1554782 30.3532892,19.2753863 C30.1269764,20.3952944 29.142546,21.2004008 28,21.2 Z" id="Shape"></path>
                            <ellipse id="Oval" cx="20.4" cy="18" rx="1.2" ry="1.2"></ellipse>
                            <ellipse id="Oval" cx="11.6" cy="18" rx="1.2" ry="1.2"></ellipse>
                            <path d="M13.6,13.956 C13.8693865,14.061521 14.1747558,14.0133729 14.3986048,13.8300825 C14.6224538,13.646792 14.7298988,13.3569227 14.6795958,13.0720132 C14.6292929,12.7871038 14.4290811,12.5515536 14.156,12.456 C12.9693531,12.0155794 11.6557241,12.0689203 10.5086922,12.6041016 C9.36166035,13.1392829 8.47684821,14.1116892 8.052,15.304 C7.95553829,15.5733783 8.01011558,15.8737557 8.19517314,16.0919832 C8.3802307,16.3102106 8.66765387,16.413134 8.94917314,16.3619832 C9.23069241,16.3108323 9.46353829,16.1133783 9.56,15.844 C9.84059925,15.0543173 10.4259715,14.4100285 11.1852099,14.0552161 C11.9444483,13.7004037 12.8142136,13.6646678 13.6,13.956 L13.6,13.956 Z" id="Shape"></path>
                            <path d="M21.496,12.6 C20.3493,12.0624318 19.0344782,12.0090893 17.848,12.452 C17.5793363,12.5506053 17.3836861,12.7850508 17.3347489,13.067023 C17.2858117,13.3489953 17.3910223,13.6356561 17.6107489,13.819023 C17.8304755,14.00239 18.1313363,14.0546053 18.4,13.956 C19.1862439,13.6619603 20.0576138,13.6958398 20.8186537,14.0500392 C21.5796935,14.4042386 22.1666992,15.0491089 22.448,15.84 C22.5971169,16.2564227 23.0555773,16.4731168 23.472,16.324 C23.8884227,16.1748831 24.1051169,15.7164227 23.956,15.3 C23.5327637,14.1056206 22.645937,13.1322743 21.496,12.6 Z" id="Shape"></path>
                            <path d="M14.516,22.984 C15.334517,23.8024112 16.661483,23.8024112 17.48,22.984 C17.6159107,22.8252959 17.6067729,22.5887223 17.4590253,22.4409747 C17.3112777,22.2932271 17.0747041,22.2840893 16.916,22.42 C16.4025533,22.9111807 15.5934467,22.9111807 15.08,22.42 C14.9212959,22.2840893 14.6847223,22.2932271 14.5369747,22.4409747 C14.3892271,22.5887223 14.3800893,22.8252959 14.516,22.984 L14.516,22.984 Z" id="Shape"></path>
                            <path d="M20,25.636 L12,25.636 C11.7790861,25.636 11.6,25.8150861 11.6,26.036 C11.6,28.4660529 13.5699471,30.436 16,30.436 C18.4300529,30.436 20.4,28.4660529 20.4,26.036 C20.4,25.8150861 20.2209139,25.636 20,25.636 Z M18.964,28.072 C18.492,27.34 17.364,26.836 16,26.836 C14.636,26.836 13.508,27.34 13.036,28.072 C12.6999027,27.5856392 12.4896302,27.023538 12.424,26.436 L19.576,26.436 C19.5103698,27.023538 19.3000973,27.5856392 18.964,28.072 L18.964,28.072 Z" id="Shape"></path>
                        </g>
                    </g>
                </g>
            </g>
        </g>
    </g>
</svg>