<?xml version="1.0" encoding="UTF-8" standalone="no"?>
<svg width="64px" height="91px" viewBox="0 0 64 91" version="1.1" xmlns="http://www.w3.org/2000/svg" xmlns:xlink="http://www.w3.org/1999/xlink">
    <!-- Generator: Sketch 42 (36781) - http://www.bohemiancoding.com/sketch -->
    <title>Group 11</title>
    <desc>Created with Sketch.</desc>
    <defs></defs>
    <g id="final" stroke="none" stroke-width="1" fill="none" fill-rule="evenodd">
        <g id="Landing" transform="translate(-688.000000, -1306.000000)">
            <g id="Group-11" transform="translate(688.000000, 1306.000000)">
                <g id="noun_710202_cc" transform="translate(13.000000, 31.000000)" fill="#0099FF">
                    <g id="Group">
                        <g id="Shape">
                            <path d="M15.5792,20.28 C15.5792,21.1452 16.3604,21.8716 17.4104,22.0736 L17.4104,18.486 C16.36,18.6884 15.5792,19.4148 15.5792,20.28 Z"></path>
                            <path d="M20.67,9.8884 C21.0852,8.4244 22.0396,7.0668 22.7744,6.1792 C22.5696,6.0928 22.4144,5.9808 22.2856,5.886 C22.0776,5.7336 21.952,5.642 21.6488,5.642 C21.3456,5.642 21.22,5.734 21.012,5.886 C20.7632,6.068 20.4228,6.3176 19.8032,6.3176 C19.1808,6.3176 18.8392,6.0676 18.59,5.8848 C18.3828,5.7332 18.258,5.6416 17.9572,5.6416 C17.654,5.6416 17.5284,5.7336 17.3204,5.8856 C17.0716,6.0676 16.7312,6.3172 16.1116,6.3172 C15.4896,6.3172 15.148,6.0672 14.8988,5.8844 C14.6916,5.7328 14.5668,5.6412 14.266,5.6412 C13.9628,5.6412 13.8372,5.7332 13.6292,5.8852 C13.5136,5.97 13.3764,6.0684 13.2024,6.1504 C13.9404,7.0376 14.9104,8.4084 15.33,9.8876 L20.67,9.8876 L20.67,9.8884 Z"></path>
                            <path d="M21.1448,13.4888 C21.0956,13.418 21.0524,13.3468 21.0088,13.2752 L14.9912,13.2752 C14.948,13.3468 14.9044,13.4184 14.8552,13.4888 L11.1564,18.7948 C11.1104,18.8552 7.9872,22.9248 7.9232,25.9332 C7.8832,27.8276 9.3132,29.9188 11.1116,30.5952 C12.1704,30.9932 15.5156,31.1308 17.976,31.0088 L18,31.0076 L18.024,31.0088 C20.4844,31.1308 23.8296,30.9932 24.8884,30.5952 C26.6864,29.9188 28.1168,27.8276 28.0768,25.9332 C28.0128,22.9204 24.8896,18.8552 24.8584,18.8144 L21.1448,13.4888 Z M18.4072,27.4744 L18.4072,28.3204 C18.4072,28.5496 18.184,28.7356 17.9088,28.7356 C17.6336,28.7356 17.4104,28.5496 17.4104,28.3204 L17.4104,27.4528 C15.8064,27.2324 14.5824,26.1344 14.5824,24.8136 C14.5824,24.5844 14.8056,24.3984 15.0808,24.3984 C15.356,24.3984 15.5792,24.584 15.5792,24.8136 C15.5792,25.6788 16.3604,26.4052 17.4104,26.6076 L17.4104,22.9192 C15.8064,22.6992 14.5824,21.6008 14.5824,20.2804 C14.5824,18.96 15.8064,17.8616 17.4104,17.6416 L17.4104,16.7736 C17.4104,16.5444 17.6336,16.3584 17.9088,16.3584 C18.184,16.3584 18.4072,16.544 18.4072,16.7736 L18.4072,17.6188 C19.2644,17.6992 20.054,18.0296 20.6168,18.5552 C20.8,18.7264 20.782,18.9888 20.5764,19.1412 C20.3708,19.294 20.056,19.2788 19.8724,19.1076 C19.498,18.758 18.978,18.532 18.4068,18.4576 L18.4068,22.1528 C20.0996,22.3116 21.4172,23.4432 21.4172,24.8136 C21.4176,26.184 20.1,27.316 18.4072,27.4744 Z"></path>
                            <path d="M18.4072,22.99 L18.4072,26.6368 C19.5484,26.488 20.4208,25.728 20.4208,24.8132 C20.4208,23.8988 19.5484,23.1388 18.4072,22.99 Z"></path>
                            <path d="M18,0 C8.0588,0 0,8.0588 0,18 C0,27.9412 8.0588,36 18,36 C27.9412,36 36,27.9412 36,18 C36,8.0588 27.9412,0 18,0 Z M25.0944,11.086 L26.3324,11.086 L26.3324,9.848 L27.308,9.848 L27.308,11.086 L28.546,11.086 L28.546,12.0616 L27.308,12.0616 L27.308,13.2996 L26.3324,13.2996 L26.3324,12.0616 L25.0944,12.0616 L25.0944,11.086 L25.0944,11.086 Z M12.2648,5.7384 C12.2648,5.7384 12.846,5.2508 13.0532,5.0992 C13.3024,4.9168 13.644,4.6664 14.266,4.6664 C14.8856,4.6664 15.226,4.916 15.4748,5.098 C15.6828,5.2504 15.8084,5.342 16.1116,5.342 C16.412,5.342 16.5372,5.2504 16.7444,5.0988 C16.9936,4.9164 17.3352,4.666 17.9572,4.666 C18.5768,4.666 18.9172,4.9156 19.166,5.0976 C19.374,5.25 19.4996,5.3416 19.8028,5.3416 C20.1032,5.3416 20.2284,5.25 20.4352,5.0984 C20.6844,4.916 21.026,4.6656 21.6484,4.6656 C22.2704,4.6656 22.612,4.9156 22.8612,5.0984 C23.0684,5.25 23.7416,5.744 23.7416,5.744 L24.132,6.114 C23.7136,6.5556 22.284,8.1504 21.6988,9.8876 L22.1984,9.8876 L22.1984,10.3752 L22.1984,10.5376 L13.8012,10.5376 L13.8012,10.3752 L13.8012,9.8876 L14.3008,9.8876 C13.7156,8.15 12.286,6.5556 11.8676,6.114 L12.2648,5.7384 Z M22.1988,11.2568 L22.1988,11.3516 L22.1988,11.7444 L22.1988,11.9068 L13.8012,11.9068 L13.8012,11.7444 L13.8012,11.3516 L13.8012,11.2568 L22.1988,11.2568 Z M7.6548,5.2112 L8.8928,5.2112 L8.8928,3.9732 L9.8684,3.9732 L9.8684,5.2112 L11.1064,5.2112 L11.1064,6.1868 L9.868,6.1868 L9.868,7.4248 L8.8924,7.4248 L8.8924,6.1868 L7.6544,6.1868 L7.6544,5.2112 L7.6548,5.2112 Z M5.5328,16.912 L5.5328,15.9364 L6.7708,15.9364 L6.7708,14.6984 L7.7464,14.6984 L7.7464,15.9364 L8.9844,15.9364 L8.9844,16.912 L7.7464,16.912 L7.7464,18.15 L6.7708,18.15 L6.7708,16.912 L5.5328,16.912 Z M25.2316,31.5084 C24.2212,31.8884 21.8948,32.0264 19.866,32.0264 C19.1912,32.0264 18.5496,32.0112 18,31.9844 C15.7984,32.0916 12.1148,32.0148 10.7684,31.5084 C8.5772,30.6844 6.8992,28.2268 6.9484,25.9128 C7.0188,22.5812 10.2344,18.394 10.3712,18.2176 L13.8156,13.2752 L13.8016,13.2752 L13.8016,12.72 L13.8016,12.6252 L22.1996,12.6252 L22.1996,12.72 L22.1996,13.2752 L22.1856,13.2752 L25.6444,18.2372 C25.7668,18.394 28.982,22.5812 29.0524,25.9128 C29.1008,28.2268 27.4228,30.6844 25.2316,31.5084 Z"></path>
                        </g>
                    </g>
                </g>
                <g id="noun_704204_cc" fill="#424242">
                    <g id="Group">
                        <g id="Shape">
                            <path d="M0,0.36218 L0,2.36218 L0,88.3622 L0,90.3622 L2,90.3622 L62,90.3622 L64,90.3622 L64,88.3622 L64,21.51843 C56.6609,14.17947 49.1367,6.65514 42.84375,0.36218 L2,0.36218 L0,0.36218 Z M4,4.36218 L40,4.36218 L40,22.36218 L40,24.36218 L42,24.36218 L60,24.36218 L60,86.3622 L4,86.3622 L4,4.36218 Z M44,7.17468 L57.1875,20.36218 L44,20.36218 L44,7.17468 Z"></path>
                        </g>
                    </g>
                </g>
            </g>
        </g>
    </g>
</svg>