<?xml version="1.0" encoding="UTF-8" standalone="no"?>
<svg width="25px" height="20px" viewBox="0 0 25 20" version="1.1" xmlns="http://www.w3.org/2000/svg" xmlns:xlink="http://www.w3.org/1999/xlink">
    <!-- Generator: Sketch 42 (36781) - http://www.bohemiancoding.com/sketch -->
    <title>Group 6</title>
    <desc>Created with Sketch.</desc>
    <defs></defs>
    <g id="final" stroke="none" stroke-width="1" fill="none" fill-rule="evenodd">
        <g id="Landing" transform="translate(-150.000000, -1758.000000)" fill="#424242">
            <g id="Group-9" transform="translate(0.000000, 1724.000000)">
                <g id="Group-6" transform="translate(150.000000, 34.000000)">
                    <path d="M24.8,2.375 C24.09712,3.39583844 23.2473823,4.26562141 22.2507614,4.984375 C22.2612522,5.13020906 22.2664975,5.34895687 22.2664975,5.640625 C22.2664975,6.99479844 22.0671763,8.34634742 21.6685279,9.6953125 C21.2698796,11.0442776 20.6640481,12.3385355 19.8510152,13.578125 C19.0379824,14.8177145 18.0702256,15.9140577 16.9477157,16.8671875 C15.8252059,17.8203173 14.4719199,18.5807263 12.8878173,19.1484375 C11.3037146,19.7161487 9.60948449,20 7.80507614,20 C4.96208392,20 2.36041789,19.2447992 0,17.734375 C0.367176117,17.7760419 0.776309081,17.796875 1.22741117,17.796875 C3.58782906,17.796875 5.69119212,17.0781322 7.53756345,15.640625 C6.4360351,15.6197916 5.44991975,15.2838574 4.57918782,14.6328125 C3.70845588,13.9817676 3.11049232,13.1510467 2.78527919,12.140625 C3.13147381,12.1927086 3.45143677,12.21875 3.74517766,12.21875 C4.19627975,12.21875 4.64212978,12.1614589 5.08274112,12.046875 C3.90777754,11.8072905 2.93477543,11.2265671 2.16370558,10.3046875 C1.39263574,9.38280789 1.0071066,8.31250609 1.0071066,7.09375 L1.0071066,7.03125 C1.72047734,7.42708531 2.48629032,7.64062484 3.30456853,7.671875 C2.61217928,7.21353937 2.06142337,6.61458703 1.65228426,5.875 C1.24314516,5.13541297 1.03857868,4.33333766 1.03857868,3.46875 C1.03857868,2.55207875 1.26937163,1.70312891 1.73096447,0.921875 C3.00034476,2.47396609 4.54508396,3.71614117 6.36522843,4.6484375 C8.18537289,5.58073383 10.1339998,6.09895781 12.2111675,6.203125 C12.1272415,5.80728969 12.0852792,5.42187687 12.0852792,5.046875 C12.0852792,3.65103469 12.5809595,2.46094242 13.572335,1.4765625 C14.5637105,0.492182578 15.7622603,0 17.1680203,0 C18.6367248,0 19.8746143,0.531244688 20.8817259,1.59375 C22.0252172,1.37499891 23.1005026,0.968752969 24.1076142,0.375 C23.7194566,1.57292266 22.9746248,2.49999672 21.8730964,3.15625 C22.8487358,3.05208281 23.8243606,2.79166875 24.8,2.375 Z" id=""></path>
                </g>
            </g>
        </g>
    </g>
</svg>